<svg
    preserveAspectRatio="xMidYMid meet" data-bbox="8.021 27.02 184 146.004"
    viewBox="8.021 27.02 184 146.004"
    height="200" width="200" xmlns="http://www.w3.org/2000/svg" data-type="color"
    role="presentation"
    aria-hidden="true" aria-label="">
    <g>
        <path
            d="M21.13 80.594c-1.002 1.381-2.011 2.757-3.006 4.144-1.433 1.997-2.729 4.112-4.342 5.951-.69.787-2.032 1.006-3.619 1.73-.167-1.913-.332-3.211-.385-4.514-.326-8.041-.63-16.083-.935-24.125-.287-7.547-.66-15.093-.812-22.643-.084-4.171.266-4.593 4.401-5.532 3.111-.706 6.316-1.025 9.492-1.413 6.036-.736 12.077-1.447 18.126-2.073 3.825-.396 7.667-.627 11.503-.918 8.879-.674 17.753-1.429 26.64-1.974 4.818-.296 9.657-.25 14.488-.321 7.29-.108 14.581-.198 21.871-.264 2.611-.024 5.224-.005 7.834.082 4.917.163 9.83.45 14.747.563 2.227.051 4.466-.123 6.689-.31 7.415-.627 14.814-1.534 22.241-1.887 5.197-.247 10.428.225 15.644.394 2.431.079 5.244 2.581 5.573 5.482.403 3.553.415 7.156.495 10.739.05 2.229.068 4.479-.188 6.687-.229 1.976 1.498 3.609.344 5.897-.848 1.682-.385 4.065-.362 6.133.098 9.027.009 18.065.451 27.077.394 8.034 1.41 16.037 2.119 24.056.172 1.94.218 3.891.313 5.667-1.898.974-2.473-.11-3.327-1.105-2.987-3.479-9.524-6.461-15.21-4.421-5.59 2.006-6.51 4.371-6.813 10.143-.082 1.564.54 3.155.727 4.746.49 4.162 1.134 8.322 1.305 12.5.138 3.375-1.779 6.137-3.867 8.65-3.575 4.304-7.37 8.378-12.329 11.181-.856.484-1.719 1.066-2.366 1.791-5.016 5.615-12.004 7.154-18.785 9.127-.473.138-.973.277-1.457.266-1.381-.032-2.083-1.137-1.299-2.263.986-1.416 2.137-2.745 3.364-3.964 6.35-6.314 12.942-12.29 20.995-16.511 2.228-1.168 4.099-3.192 5.813-5.108 1.876-2.098 2.247-4.663.83-7.26-1.4-2.568-3.785-3.136-6.394-2.722-6.177.98-10.067 5.005-12.942 10.173-2.58 4.638-4.289 9.714-7.633 13.983-3.331 4.253-7.612 7.426-11.571 10.969-2.706 2.421-6.316 1.979-9.554 2.579-2.666.494-5.435.495-8.163.567-.88.023-1.773-.421-3.262-.808 1.161-1.674 1.84-2.979 2.818-3.999 2.746-2.865 5.59-5.639 8.441-8.403a3763.15 3763.15 0 0 1 17.147-16.517c3.047-2.917 6.078-5.855 9.235-8.649 3.097-2.741 6.685-4.648 10.635-5.992 6.633-2.257 9.255-10.802 6.224-15.603-2.706-4.286-6.592-7.03-11.583-8.038a31.015 31.015 0 0 0-5.919-.594c-3.429-.022-6.239.864-5.823 5.261.186 1.967.079 4.005.569 5.891.929 3.573.677 7.132.345 10.698-.282 3.024-1.419 5.76-3.43 8.099-2.817 3.276-5.558 6.62-8.467 9.813-.885.972-2.157 1.653-3.354 2.273-11.525 5.964-21.051 14.365-29.614 23.964-.71.796-1.592 1.799-2.529 1.97-3.03.551-6.117.874-9.195 1.019-.811.038-1.667-.883-2.576-1.407.261-.668.311-1.253.631-1.546 3.722-3.409 7.485-6.774 11.236-10.152 3.395-3.058 6.902-6.003 10.153-9.207 3.353-3.304 6.505-6.816 9.654-10.319 3.249-3.614 7.322-5.822 11.848-7.378 2.227-.766 4.495-1.501 6.578-2.573 3.107-1.599 3.725-3.564 2.418-6.808-1.457-3.617-4.106-5.672-8.019-6.408-4.222-.793-7.777.15-10.122 3.712-1.539 2.337-2.734 5.026-3.486 7.723-1.438 5.154-3.975 9.638-7.598 13.453-4.61 4.854-9.468 9.474-14.215 14.2-3.165 3.151-6.274 6.359-9.499 9.447-1.873 1.793-3.799 3.589-5.946 5.017-1.361.906-3.138 1.381-4.791 1.619-2.928.422-5.902.553-8.861.72-.678.038-1.375-.271-2.067-.42-.535-2.839.522-4.312 2.936-5.645 5.928-3.271 10.648-8.126 15.23-12.993 8.071-8.575 15.976-17.309 23.785-26.123 3.365-3.798 6.292-7.98 9.459-11.955 9.195-11.537 18.226-23.212 28.735-33.638 3.82-3.79 8.303-6.184 13.617-7.158 2.804-.514 5.616-1.141 8.315-2.041 4.519-1.507 6.747-4.527 7.436-9.529.876-6.357-1.819-9.659-8.488-11.272-4.83-1.169-9.936-1.054-14.777.284-5.87 1.622-9.921 5.619-12.198 11.166-2.065 5.032-3.778 10.21-5.568 15.351-3.955 11.358-9.904 21.662-17.474 30.907-6.351 7.756-13.203 15.143-20.248 22.288-7.571 7.678-15.461 15.068-23.529 22.227-5.093 4.519-10.72 8.452-16.211 12.508-1.786 1.319-3.889 2.053-6.276 1.926-3.842-.203-7.696-.178-11.545-.248-.497-.009-1.083.153-1.472-.055-.688-.366-1.466-.853-1.782-1.497-.144-.294.598-1.296 1.148-1.606 2.702-1.521 5.58-2.751 8.198-4.398 3.956-2.488 7.763-5.213 11.604-7.88 2.736-1.9 5.555-3.715 8.096-5.851a111.184 111.184 0 0 0 8.668-8.146c4.455-4.645 9.167-9.136 12.994-14.268 5.77-7.737 11.036-15.865 16.202-24.024 3.842-6.069 7.159-12.468 10.761-18.691 2.916-5.037 5.842-10.069 8.891-15.026 1.759-2.86 4.026-5.204 6.912-7.143 2.525-1.696 4.692-4.071 6.622-6.463 3.388-4.199 2.603-12.097-1.404-15.721-1.598-1.445-3.46-2.166-5.817-1.667-8.085 1.714-13.208 6.224-14.813 14.528-1.385 7.167-2.699 14.372-4.61 21.407-2.443 8.994-6.328 17.442-11.279 25.382-10.456 16.77-23.549 31.299-38.518 44.093-7.523 6.43-15.745 12.048-23.665 18.016-.475.358-1.069.558-1.773.916-2.813-3.583-1.297-7.998-2.83-11.551 5.926-4.44 11.695-8.697 17.39-13.05 5.133-3.923 9.658-8.469 13.832-13.408 3.521-4.165 7.333-8.086 11.031-12.101 2.31-2.508 4.964-4.375 8.376-5.274 1.99-.524 3.981-1.513 5.634-2.744 4.328-3.221 4.394-8.308.405-13.029-3.071-3.635-8.2-3.828-11.945-.566-3.167 2.759-5.094 6.018-4.964 10.338.097 3.224-1.091 6.031-2.94 8.641-1.645 2.321-3.082 4.788-4.717 7.117-3.263 4.65-7.809 7.953-12.323 11.231a434.484 434.484 0 0 1-16.481 11.418c-2.759 1.814-4.403.796-4.462-2.484-.053-2.964.019-5.931.035-8.871 2.074-1.138 3.714-2.225 5.495-2.984 10.485-4.473 17.903-12.223 23.595-21.814 2.582-4.351 5.062-8.672 6.417-13.71 1.277-4.75 4.774-8.454 9.132-10.85 1.827-1.005 4.236-1.17 6.404-1.287 2.211-.119 4.452.451 6.678.435 4.38-.032 6.008-1.419 7.07-5.635 1.881-7.468-2.931-13.312-10.538-14.638-7.466-1.302-17.336 5.21-20.173 12.972-1.19 3.257-.813 7.089-1.105 10.663-.618 7.576-2.526 14.691-8.007 20.299-3.279 3.355-6.719 6.597-10.377 9.528-4.235 3.394-8.79 6.39-12.897 9.338-2.355-.345-2.528-1.71-2.632-3.106-.294-3.933-.613-7.865-.85-11.802-.136-2.272.493-3.174 2.704-3.801 1.182-.335 2.445-.388 3.673-.559 4.551-.634 8.647-2.187 11.747-5.76.244-.281.492-.559.744-.833 4.396-4.779 4.786-8.081 1.592-13.608-.246-.425-.473-.903-.833-1.213-3.638-3.13-6.204-4.199-9.122.333-.506.786-.842 1.68-1.256 2.524l.114-.127zm28.911 76.717c-1.332-.168-2.767-.7-4.1 1.676 1.814-.775 2.945-1.259 4.058-1.777l2.23-2.36c-2.556-.401-2.307 1.079-2.188 2.461zM61.592 49.779c-1.93.757-2.545 2.498-3.216 4.195 1.699-.946 2.638-2.446 3.158-4.25 1.41-.361 1.924-1.35 1.611-2.874l-1.553 2.929zm72.448 31.075c-1.364 1.712-1.952 3.608-1.438 6.548 1.092-2.576 1.975-4.416 1.443-6.568l2.484 1.711.52-2.471-3.009.78zM61.556 113.13l-.803 7.092.782.231c.313-.648.93-1.321.881-1.94-.144-1.804-.554-3.587-.86-5.379l-.153-3.224-2.502 1.73 1.24 2.111c.538-.237.976-.43 1.415-.621zm44.785-25.398c.042 2.824.395 3.963 2.088 6.278l-2.147-6.217c-.255-2.89-.201-5.858-2.269-8.309.14 2.306.556 4.558 1.129 6.77.144.556.793.981 1.199 1.478zM69.757 42.3c3.007-3.165 5.934-8.202 5.935-10.728-2.063 3.535-4.589 6.808-5.857 10.794-1.162.81-1.891 1.849-1.439 3.47l1.361-3.536zm-43.98 7.385l-2.282 2.558 3.952 6.563c.468-1.054.468-1.896.245-2.674-.631-2.206-1.353-4.385-2.038-6.578.599-.132 1.471-.059 1.751-.43 1.485-1.971 2.822-4.052 4.21-6.096l-.884-.579-4.954 7.236zm43.779-12.792c2.599-.558 3.048-2.719 3.846-4.82-1.606-.009-2.974-.098-4.325.009-.693.055-1.659.258-1.988.741-2.18 3.205-4.796 6.167-5.995 10.007.966-.546 1.808-1.196 2.466-1.995a215.505 215.505 0 0 0 5.284-6.691c.645-.849 1.205-1.2 2.136-.101-.424.938-.875 1.934-1.308 2.946-1.188 1.216-2.244 2.504-2.539 4.209 1.564-1.039 2.901-2.206 2.423-4.305zm97.102 62.729c.829-.614 1.452-.961 1.931-1.448 4.33-4.411 8.618-8.863 12.959-13.263.919-.931 2.131-1.593 2.962-2.584.535-.637.62-1.649 1.146-3.2-4.497 3.341-17.964 17.901-18.998 20.495zM30.911 47.718l5.249 8.222c-.096-2.398-.439-4.762-1.57-6.659-1.302-2.183-.773-3.538.686-5.231 1.213-1.408 2.049-3.138 3.052-4.726l-.793-.511-6.624 8.905zm45.81-4.542l.886.477c3.247-3.846 6.478-7.702 8.426-13.17-1.414.423-2.458.417-2.72.864-2.276 3.897-4.413 7.875-6.592 11.829zm12.717 58.948l.979-.265 3.131 8.776c.695-3.802-1.057-7.013-1.946-10.402-.129-.489-1.089-.761-1.971-1.332l-2.165 4.361 3.251 5.884c.161-1.322-.123-2.485-.415-3.646-.283-1.128-.575-2.252-.864-3.376zM50.696 53.52c2.496-2.081 7.176-9.508 7.491-12.124-2.653 3.047-5.174 5.879-7.616 8.778-.903 1.071-1.666 2.299.125 3.346zm24.125-11.641c-3.207 3.257-6.241 6.684-8.779 11.213 1.244-.19 2.235-.049 2.52-.431 2.482-3.32 5.031-6.618 6.259-10.782zM50.55 40.668l-.721-.676-7.149 8.605 3.277 5.27c.374-1.3.322-2.334-.1-3.185-.901-1.818-.562-3.159.813-4.655 1.483-1.612 2.602-3.558 3.88-5.359zm-2.091 82.335c3.934 2.024 1.271 5.554 2.309 8.551 1.637-2.593 1.736-7.057.385-11.705l-2.694 3.154zM29.594 69.087c4.271-.801 14.81-6.876 17.61-9.985l-17.61 9.985zm62.323-37.984c-3.429-.461-4.217.251-6.367 5.77l1.836.357 4.531-6.127zm2.3 22.275c-1.88-3.889-2.942-8.238-6.53-11.168 1.514 4.095 3.783 7.765 6.53 11.168zm5.702 53.87c-3.064.435-3.463-1.152-3.802-2.786-.2-.966-.308-1.957-.586-2.899-.267-.906-.7-1.764-1.06-2.644l-.914.358 3.282 11.299a9525.67 9525.67 0 0 1 3.08-3.328zm1.838-3.084c.435-.344.811-.557.785-.632-1.429-4.126-2.891-8.24-4.608-13.083-.202 3.154 1.906 10.231 3.823 13.715zm-1.511-19.757l-1.27.265c.387 3.611 1.37 7.074 3.504 10.267l-2.234-10.532zM87.738 67.21l3.249 5.01 1.582-6.242c-2.269-1.71-1.986 3.977-4.831 1.232zm56.394 25.211c1.26-3.356 3.138-6.503 2.799-10.228-1.904 3.149-2.812 6.584-2.799 10.228zm-4.394 2.12l.754.303 3.347-11.769-.916-.26c-1.484 3.787-2.53 7.699-3.185 11.726zm-78.527 46.352c7.635-.456 7.635-.456 8.775-2.388-4.495.122-5.708.424-8.775 2.388zm-20.63-95.148l.646.573c2.34-2.435 5.186-4.49 5.647-8.356-2.099 2.594-4.196 5.189-6.293 7.783zm75.297 22.91l-.787.07c.254 1.299.606 2.589.723 3.9.069.774.04 2.016-.414 2.298-2.143 1.331-.848 2.228.155 3.562 2.206-3.48 2.028-6.649.323-9.83zm-30.1 41.338l-.801.222c.257 1.168.492 2.341.777 3.501.324 1.318.558 2.682 1.086 3.918.384.901.265 2.513 2.147 2.417l-3.209-10.058zm69.19-68.517l.654.366c1.779-3.148 3.967-6.092 5.081-9.571l-.764-.39c-1.656 3.199-3.314 6.397-4.971 9.595zM18.685 55.28c-1.599 2.596-1.455 2.979 2.924 7.996l-2.924-7.996zm-7.987.077c4.646-5.844 4.75-6.02 4.927-8.562-1.369 2.722-4.986 4.022-4.927 8.562zm15.229-19.113c-3.005 1.5-3.412 4.745-4.786 7.355 2.078-2.109 4.09-4.259 4.786-7.355zm11.689 12.891l3.249 5.078c.717-2.467.436-4.578-1.365-6.508l-1.884 1.43zm1.787 11.75l2.201-1.547-3.248-5.321-.639.336c.507 1.967 1.014 3.933 1.686 6.532zm84.612-16.013c2.84-1.806 3.56-5.012 5.144-7.648-2.348 2.13-4.171 4.608-5.144 7.648zm38.544 1.394c-2.407 1.37-5.107 2.258-7.208 5.069 3.659-.683 5.229-3.236 7.208-5.069zM29.765 59.014l2.058 6.378c1.879-1.946 1.5-3.105-2.058-6.378zm133.984 25.269c-.002-2.675-1.57-4.562-3.389-6.323.566 2.392 1.059 4.82 3.389 6.323zm-99.547 31.695c2.06-1.355 3.743-2.81 4.524-4.812l-3.863.981-.661 3.831zm-33.443-79.95l-.88-.562c-2.093 1.966-3.285 4.506-4.032 7.343l4.912-6.781zm129.234-5.598l-.083-.964c-1.899.249-3.81.44-5.687.802-.326.063-.511.85-.849 1.461 2.724.786 4.643-.375 6.619-1.299zM31.818 57.002c-.371-4.971-1.163-6.226-3.455-5.973l3.455 5.973zm-9.779-2.242l-1.042.612 3.299 6.47.813-.384c-1.058-2.218-.962-4.945-3.07-6.698zm-.944 50.986c-1.871 2.716-2.238 4.573-1.832 7.081.34-.174.904-.297.937-.505.347-2.184.609-4.382.895-6.576zm122.807-28.045c-4.333.697-4.336.697-4.7 3.826-.014.118.182.26.301.42L141.038 79l1.942 1.514.922-2.813zm37.662 30.839l.527.421 4.872-5.973-.502-2.039-4.897 7.591zM61.748 146.586l-.112-.773c-2.749-.123-5.428.098-7.739 2.188l7.851-1.415zm-2.29-108.292l4.994-5.372c-3.135-.177-3.587.303-4.994 5.372zm58.778 127.886l1.067.199 1.317-8.921-.815-.122-1.569 8.844zm-21.172-65.52l.993-.33-2.066-7.336-.84.219 1.913 7.447zm53.733-65.788l-.699-.433c-1.469 1.982-3.359 3.707-3.274 6.648l3.973-6.215zM57.758 50.473c-4.959 4.164-5.236 4.617-4.735 6.706l4.735-6.706zm103.125-6.325c-3.754-.485-4.847 1.356-5.483 3.832l5.483-3.832zM15.292 67.69l.695-.402-1.709-5.14c-2.098 2.644.164 3.865 1.014 5.542zm14.248 80.971c2.005-1.924 2.028-2.256.65-5.931l-.65 5.931zm48.771-99.472l.953.675 4.533-6.693-.704-.493-4.782 6.511zm3.185 70.307c.422 4.651.422 4.651 2.255 5.819-.893-1.745.137-4.098-2.255-5.819zm1.954-4.541c-.048 3.327.8 5.589 2.362 7.632-.339-2.418-.328-4.943-2.362-7.632zm19.42-16.877l1.516 3.446 2.229-5.468-3.745 2.022zm19.26 63.375l.469.456 1.473-7.054-.63-.123-1.312 6.721zm-3.87-24.944c-1.183 1.567-1.976 3.192-1.173 5.668 1.623-1.968 1.804-3.735 1.173-5.668zm-27.721 5.981c2.363-1.502 1.28-3.458 1.457-5.248l-.769-.101-.688 5.349zM75.788 49.106c-4.076 3.112-4.076 3.112-3.955 5.51l3.955-5.51zm92.816 30.659c2.401-1.184 1.379-2.094.59-2.832-.812-.759-1.786-1.348-2.731-2.042l2.141 4.874zM67.43 131.516c2.968-.466 3.421-1.005 4.026-4.911l-4.026 4.911zm-9.436-12.806c-.452 1.859-1.121 3.714-.218 6.24 1.486-2.476.78-4.36.218-6.24zM31.563 39.946l3.765-4.552c-3.169-.008-3.446 2.287-3.765 4.552zm56.676 68.204c-.12 3.857.14 4.592 2.23 6.901l-2.23-6.901zM38.91 85.842l.599.835c1.764-.655 3.467-1.391 3.898-3.847l-4.497 3.012zM22.565 70.096c.961 1.008.169 2.84 2.032 2.464 1.856-.375.945-1.871.877-3.162l-2.909.698zm25.032-21.365l.963.599 3.242-4.738-.688-.467-3.517 4.606zm31.55 73.447l-.683.251c.607 1.995.507 4.254 1.961 5.934l.863-.319-2.141-5.866zm37.795 39.243c-2.064 1.654-1.466 3.999-1.088 6.32l1.088-6.32zm39.193-87.72c1.587-.153 2.613-.206 3.616-.388.206-.037.521-.629.445-.846-.222-.626-.617-1.19-1.118-2.091l-2.943 3.325zm21.788 36.781l.062-.873c-1.573.134-3.202-1.233-5.084.845l5.022.028zM158.78 42.788l2.76-5.19c-2.325 1.062-3.332 2.759-2.76 5.19zm-29.373 43.89c-3.106 2.024-3.106 2.024-1.731 4l1.731-4zm-82.55 47.401c1.892-1.553 1.377-3.466.772-5.391l-.772 5.391zM11.056 60.294l.827.31 2.592-4.271-.764-.457c-.349 1.817-3.317 1.954-2.655 4.418zm111.393-23.487l.921.605 2.442-4.467-.61-.353-2.753 4.215zm25.956 10.806l-1.271 2.241 3.237.018c.5-1.922-.862-1.858-1.966-2.259zM86.873 72.051l.883-.517-3.058-5.141-.839.493 3.014 5.165zM42.237 89.24l-.443-.783-4.496 2.02.31.706c1.486-.79 3.594-.059 4.629-1.943zm140.02.771c2.266.223 2.699-.276 2.909-3.331l-2.909 3.331zM74.203 55.043l.854.707 2.879-3.975-.772-.575-2.961 3.843zm62.945-8.088c-1.366.55-1.907 1.5-2.143 2.874 2.669-.274 2.669-.274 2.143-2.874zm45.581-15.326c-1.486-2.426-2.286-2.438-3.529-.292l3.529.292zm-70.155 112.095c1.906-1.261 1.961-2.979 1.238-4.89l-1.238 4.89zM99.068 38.542c-.243-3.203-.243-3.203-2.378-5.057l2.378 5.057zm7.792 42.665l.929-.152-.874-5.446-.95.155.895 5.443zm-70.247 61.508l1.099.086c.839-1.399.245-2.876-.503-4.397l-.596 4.311zm7.786-10.716c-.453 1.779-1.267 3.535-.295 6.252.909-2.605.578-4.43.295-6.252zm50.131 5.564l.921.102.524-5.885-.599-.068-.846 5.851zm18.672-72.067c.465-.993.688-1.693 1.093-2.266.34-.482.893-.814 1.937-1.723-3.792 1.273-3.792 1.273-3.03 3.989zm-72.45 66.46l-.717-.452c-.429.858-2.508.692-1.228 2.59.223.33.649.525 1.15.913l.795-3.051zm105.725 27.969l.586.218 1.733-4.441-.684-.255-1.635 4.478zM86.817 57.129l-.709.32 1.991 4.116.542-.241-1.824-4.195zm83.27-20.794l.543.734 4.196-3.101a383.03 383.03 0 0 0-.477-.665l-4.262 3.032zM32.194 99.054l-1.399 4.609c2.546-1.331 1.921-2.984 1.399-4.609zm-6.998 31.137c1.39-2.022 1.39-2.022.271-3.796l-.271 3.796zm28.865-2.75l.912-.074.028-4.978-.398-.03-.542 5.082zm-37.732-19.372c.845-1.498 1.827-2.976.425-4.743l-.425 4.743zm4.229-32.84l1.131-.505-2.212-3.804-.677.312 1.758 3.997zm6.677 75.988l.023-4.093c-.871 1.347-1.568 2.698-.023 4.093zm81.073-5.116c2.043-.831 2.043-.831 1.431-3.62l-1.431 3.62zm-74.747-.847l.988-.027-.336-3.644-.631.031-.021 3.64zm37.162-8.961l-.267-.642-4.641.795.08.476 4.828-.629zM173.364 32.178l3.298-1.801c-2.485-1.072-2.88.383-3.298 1.801zM63.713 163.763l.861-2.993-.805-.636-1.961 2.274 1.905 1.355zm103.716-51.041l-.553-.621-2.713 2.371.625.704 2.641-2.454zM112.447 68.06l-1.011.441 1.36 3.6.807-.277-1.156-3.764zM54.591 33.496c-3.158-.54-3.393.81-2.608 3.141l2.608-3.141zm38.384 6.253l1.026-.557c-1.294-.836-.025-2.882-2.793-3.662l1.767 4.219zm92.88 54.408c-.918 1.236-1.376 1.789-1.762 2.389-.405.629-.741 1.302-1.107 1.956 1.531-.828 3.264-1.475 2.869-4.345zm-30.173 12.442l3.152-3.528c-2.727.234-2.941 1.815-3.152 3.528zm20.828-52.811a248.7 248.7 0 0 1-.359-.736l-3.933 1.958.348.71 3.944-1.932zm-27.646 31.016l.986.16 1.065-4.259-.707-.186-1.344 4.285zm-90.55 1.893l-1.043-1.04c-.07 1.821-2.29 1.631-2.536 4.273l3.579-3.233zm86.131 72.777l-.686-.184-1.198 3.868.835.232 1.049-3.916zm-9.163-117.869l-.701-.465-1.847 2.808.488.362 2.06-2.705zM31.738 74.389c-.748-1.49-.812-2.741-2.512-2.372-.261.057-.466.371-.939.771l3.451 1.601zm48.015 70.685c-2.027.557-1.762 1.551-1.009 3.489.487-1.688.748-2.589 1.009-3.489zM18.341 39.557c.383.129.641.285.705.227.907-.818 1.895-1.605 2.041-2.863l-.714-.451-2.032 3.087zm58.971-4.418c2.14-2.004 2.14-2.004 2.036-3.921l-2.036 3.921zm42.747 118.2c-2.177 1.17-2.177 1.17-.989 2.647l.989-2.647zm57.565-80.989l-.371-.987-3.469 1.496.347.82 3.493-1.329zM69.123 158.133c1.33-1.717 1.33-1.717.253-3.851l-.253 3.851zM15.097 78.251l1.327 4.14c2.054-2.82-.556-3.124-1.327-4.14zm119.354 15.085l.563.22.8-3.455-.373-.076-.99 3.311zm17.124-61.767l-.142-.961c-1.23.503-2.707-.363-4.209 1.27l4.351-.309zM50.263 95.885l-.561-3.472c-1.495 1.728-1.73 2.706.561 3.472zm54.034 53.495c2.615-.578 1.264-1.748 1.192-3.044l-1.192 3.044zM81.328 50.545c.24 1.776.24 1.776 1.689 2.913-.066-1.247-.213-2.355-1.689-2.913zm76.46 37.479l.759-.57a5377.15 5377.15 0 0 1-1.771-3.333l-.676.358 1.688 3.545zm29.411 18.391c-2.151 1.374-.489 2.25-.019 3.415l.019-3.415zM14.42 86.226c1.625-1.738.404-2.095-1.101-3.1l1.101 3.1zm145.395-3.201l-.747.45 1.473 3.207.921-.431-1.647-3.226zM24.651 106.136l-.637-.154-.857 3.309.728.18.766-3.335zm-6.073-28.334l.621-.423-1.949-2.745-.487.336 1.815 2.832zm25.335-1.658c1.003-1.028.905-1.879-.58-2.516l.58 2.516zm119.05-3.816l.627-.518c-.632-.936-.527-2.428-2.784-2.961l2.157 3.479zm-31.232 95.639l.778.597 1.586-2.205-.609-.439-1.755 2.047zM30.44 124.471l-.508-.21c-.198.433-.478.85-.568 1.305-.08.406.05.854.087 1.283l.552-.001.437-2.377zm61.857-28.979c-1.551 2.321-1.551 2.321.283 2.92l-.283-2.92zm-54.737.113c2.063-.743 2.075-.737 2.563-1.692.04-.077-.247-.32-.557-.701l-2.006 2.393zm112.453-2.757c1.73-.905 1.73-.905 1.068-2.742l-1.068 2.742zm-114.006 28.5c1.58-1.398 1.58-1.398.625-3.665l-.625 3.665zm130.039-62.962l.248.516c.773-.406 1.552-.803 2.308-1.237.053-.03-.059-.345-.14-.769l-2.416 1.49zM43.17 130.941l1.013-3.474c-1.363 1.334-3.115 1.685-1.013 3.474zm-3.824-17.197l.018-3.249c-1.668 1.013-1.611 1.888-.018 3.249zM92.08 55.538l-.556.337 1.561 2.627.709-.436-1.714-2.528zm69.738 61.603l-.563-.509c-.857.678-2.406.758-2.05 2.948 1.034-.964 1.824-1.701 2.613-2.439zM35.669 59.589c-.578 1.638-.731 2.534 1.376 3.189l-1.376-3.189zm7.192 46.761l-1.094-.054.139 2.66.663.006.292-2.612zm1.468-50.968l-.691.312.817 2.08.744-.331-.87-2.061zm5.527 47.406l-.555.119.252 2.522.761-.105-.458-2.536zM185.7 67.928l-.955-.962c-1.124.058-1.764.486-.847 2.966a3285 3285 0 0 1 1.802-2.004zm-6.427-25.714l.737.695c1.635-1.063 1.635-1.063 1.906-2.652l-2.643 1.957zm-13.187 39.607l.487-.362-1.526-2.134-.463.326 1.502 2.17zM37.569 97.416c-2.11-.569-2.478.29-2.393 1.593.011.161.249.307.496.591l1.897-2.184zm9.264-62.335l.694.493 1.333-1.739-.572-.482-1.455 1.728zm137.195-3.269l.103 2.543c1.749-.933 1.004-1.731-.103-2.543zM92.408 94.58l.523.531c.388-.226.985-.372 1.111-.698.166-.428-.04-.999-.153-2.245l-1.481 2.412zm75.551-62.907c-1.631-.142-2.402.544-2.606 2.811l2.606-2.811zm-4.682-.186l2.459-1.878c-1.717-.511-2.565-.247-2.459 1.878zm-23.134 129.424l-.458-.546-1.799 1.529.432.524 1.825-1.507zM50.942 58.099c-.561-.469-.894-.964-1.225-.963-.326.001-.65.504-.976.787.265.274.515.749.799.77.372.028.77-.304 1.402-.594zm23.81 73.743c.893.342 1.998 2.071 2.606-.202l-2.606.202zM92.65 64.208c.295-1.622.845-2.8-1.368-2.465l1.368 2.465zm-1.947 92.344l.562.692 1.699-1.744-.456-.477-1.805 1.529zm75.252-50.287l-.638-.798-1.386 1.192.6.659 1.424-1.053zM38.473 43.528l.507.529 1.594-2.045-.4-.342-1.701 1.858zm-10.28 23.4l1.026-.297-.827-2.033-.628.196.429 2.134zm151.62 12.254l.246.178 1.313-1.509-.309-.244-1.25 1.575zm-92.752-1.587l.945 2.35c.367-1.317 1.391-2.549-.945-2.35zm-33.713 74.246c.895 1.642 1.555 1.431 2.429-.162l-2.429.162zm40.711 1.378l.414.371 1.348-1.491-.419-.375-1.343 1.495zm-7.94-68.543l-.579-.407-1.297 1.69.712.495 1.164-1.778zM47.614 97.494c-1.54 1.097-1.662 1.776.11 2.65l-.11-2.65zm4.863 21.267l1.211 1.117c.114-.455.254-.906.335-1.368.08-.457.099-.924.217-2.122l-1.763 2.373zm34.653 27.147l.799.372c.189-.578.39-1.153.54-1.74.008-.033-.57-.263-.579-.246-.276.525-.515 1.071-.76 1.614zm-43.08-30.064c.347-.781.58-1.099.61-1.434.027-.306-.166-.632-.262-.95-.315.247-.718.441-.91.762-.1.166.174.555.562 1.622z"
            fill="#43363F" data-color="1"></path>
        <path
            d="M190.748 128.006c2.206 5.264 1.058 9.734.174 14.262-.493 2.525-.409 5.156-.712 7.725-.391 3.306-.72 6.638-1.43 9.882-.651 2.974-2.53 5.127-5.754 5.574-4.664.647-9.333 1.306-14.021 1.706-4.861.414-9.748.539-14.625.752-.571.025-1.152-.198-1.698-.3-.632-2.219.782-3.424 1.874-4.702 6.73-7.873 14.747-14.248 23.316-20.007 2.872-1.93 5.59-4.103 8.264-6.304 1.846-1.519 3.187-3.425 3.469-5.944.084-.741.602-1.433 1.143-2.644zm-22.986 31.811l-2.452 4.972 4.612.026c-.272-.705-.654-.905-1.03-1.114-.499-.277-.994-.561-1.448-.818.093-1.186.169-2.156.243-3.127l1.475-2.671-.799-.263-.601 2.995zm12.222-8.92l-.971-.27c-1.97 4.284-2.799 8.903-3.791 13.575.835-.143 1.684-.397 1.806-.846.773-2.852 1.384-5.747 2.052-8.627.297-1.279.602-2.555.904-3.832zm-17.703 13.443c2.571-1.957 2.974-3.034 2.77-6.264l-2.77 6.264zm17.344-1.828l.537.084.926-4.727-.629-.101-.834 4.744zm4.43-7.318l.541.132c.197-.671.435-1.334.579-2.016.138-.652.178-1.325.26-1.989l-.476-.084-.904 3.957zm2.412-14.837l-.696-.619-1.037 1.563c.192.124.52.386.556.351.419-.406.792-.857 1.177-1.295zm-13.508 13.319l-.598-.156-.314 2.136.673.095.239-2.075z"
            fill="#43363F" data-color="1"></path>
        <path
            d="M141.798 65.664c-1.847-.01-3.694-.012-5.541-.036-.616-.008-1.264.034-1.839-.139-1.584-.476-3.192-1.198-3.336-3.038-.143-1.828 1.235-2.886 2.806-3.5 5.757-2.249 11.485-2.438 17.117.435 2.186 1.115 2.495 3.64.479 5.076-.937.667-2.242.822-3.384 1.199-.109.036-.245-.012-.369-.013l-5.933-.034a.417.417 0 0 1 0 .05z"
            fill="#43363F" data-color="1"></path>
        <path
            d="M55.63 65.329c-.617-1.807-.02-3.33 1.892-4.063 3.241-1.243 6.558-2.306 10.116-1.789.966.141 1.967.371 2.832.801 2.148 1.068 3.435 3.52 3.031 5.469-.352 1.697-2.484 3.016-5.073 2.852-1.459-.092-2.903-.562-4.333-.94-2.709-.713-5.403-1.483-8.465-2.33z"
            fill="#43363F" data-color="1"></path>
        <path
            d="M146.867 120.849c-5.533-1.288-9.755-3.703-12.357-8.259-.496-.869-.359-2.523.158-3.437.656-1.16 1.985-1.676 3.571-1.159 3.715 1.212 7.102 2.99 9.928 5.666 1.614 1.528 1.871 4.345.668 5.765-.582.687-1.497 1.095-1.968 1.424z"
            fill="#43363F" data-color="1"></path>
        <path
            d="M185.507 126.561c.038 2.586-1.288 3.917-3.273 3.207-3.108-1.111-6.112-2.559-9.051-4.074-1.37-.706-2.264-3.787-1.547-4.867.938-1.413 2.366-2.113 4.135-1.826 3.785.613 7.087 2.037 9.027 5.588.4.735.576 1.591.709 1.972z"
            fill="#43363F" data-color="1"></path>
        <path
            d="M115.216 46.572c-.079 2.711-2.956 5.533-5.699 5.161-1.779-.242-3.557-1.036-5.132-1.937-.589-.337-.92-1.72-.816-2.557.457-3.649 5.223-6.513 8.73-5.387 1.612.517 2.974 2.723 2.917 4.72z"
            fill="#43363F" data-color="1"></path>
        <path
            d="M112.916 119.904c3.339-.408 5.371 2.299 7.609 4.256 1.476 1.291.135 4.029-1.984 3.998-1.77-.025-3.611-.68-5.264-1.408-1.205-.531-2.138-1.659-3.226-2.477-.959-.721-1.852-1.651-1.1-2.763.52-.769 1.682-1.133 2.601-1.591.298-.147.733-.018 1.364-.015z"
            fill="#43363F" data-color="1"></path>
        <path
            d="M64.47 89.84c.848.351 2.48.898 3.983 1.688 1.389.73 1.465 2.132 1.341 3.554-.127 1.456-1.002 2.104-2.303 2.506-2.459.76-4.659.38-6.486-1.427-1.03-1.018-2.205-2.084-1.516-3.835.584-1.485 2.343-2.564 4.981-2.486z"
            fill="#43363F" data-color="1"></path>
        <path
            d="M28.686 80.49c-.785-.353-1.665-.481-2.377-.161a4.196 4.196 0 0 1-.493.334c-.2.182-.379.405-.516.701-.429.93-.408 1.974-.272 3.003.457.701.696 1.562.754 2.616.042.768.609 1.621 1.165 2.225 1.608 1.747 3.931 1.148 4.485-1.185.217-.912.173-2.015-.138-2.895-.588-1.667-1.321-3.28-2.608-4.638z"
            fill="#43363F" data-color="1"></path>
        <path
            d="M146.211 141.77c.117-2.216 1.688-3.835 3.684-3.797 2.192.042 4.2 1.909 4.159 3.867-.046 2.16-2.198 4.325-4.278 4.303-1.904-.02-3.68-2.199-3.565-4.373z"
            fill="#43363F" data-color="1"></path>
    </g>
</svg>